<svg width="75" height="17" viewBox="0 0 75 17" fill="none" xmlns="http://www.w3.org/2000/svg">
<path d="M15.1229 5.53544C15.133 5.67756 15.133 5.81972 15.133 5.96184C15.133 10.2968 11.8336 15.2918 5.80311 15.2918C3.94523 15.2918 2.21936 14.7537 0.767578 13.8197C1.03155 13.8502 1.28533 13.8603 1.55945 13.8603C3.09242 13.8603 4.50361 13.3426 5.63052 12.4593C4.18889 12.4288 2.98077 11.4847 2.56452 10.1852C2.76758 10.2156 2.97061 10.2359 3.18383 10.2359C3.47823 10.2359 3.77267 10.1953 4.04677 10.1243C2.54423 9.81969 1.4173 8.49991 1.4173 6.906V6.86541C1.85383 7.10906 2.36148 7.26134 2.89952 7.28162C2.01627 6.69278 1.43761 5.68772 1.43761 4.55066C1.43761 3.94153 1.60002 3.38316 1.8843 2.89584C3.49852 4.88569 5.92492 6.18516 8.6457 6.32731C8.59495 6.08366 8.56448 5.82988 8.56448 5.57606C8.56448 3.76894 10.0264 2.29688 11.8437 2.29688C12.7878 2.29688 13.6406 2.69281 14.2396 3.33241C14.9807 3.19028 15.6914 2.91616 16.3208 2.54053C16.0771 3.30197 15.5594 3.94156 14.8792 4.34763C15.5391 4.27659 16.1787 4.09381 16.7675 3.84003C16.3209 4.48975 15.7625 5.06841 15.1229 5.53544Z" fill="#A3A3A3"/>
<path d="M45.1592 2.97634C45.1541 2.96644 45.1456 2.95869 45.1353 2.95446C43.9439 2.40786 42.6867 2.01809 41.3951 1.7949C41.3834 1.79272 41.3712 1.79429 41.3605 1.7994C41.3497 1.8045 41.3408 1.81288 41.335 1.82334C41.1638 2.13405 41.0084 2.45321 40.8694 2.77959C39.4771 2.56824 38.0609 2.56824 36.6686 2.77959C36.5286 2.45238 36.3707 2.13315 36.1956 1.82334C36.1896 1.81311 36.1807 1.80492 36.1699 1.79985C36.1592 1.79478 36.1472 1.79305 36.1355 1.7949C34.8437 2.01762 33.5864 2.40742 32.3952 2.9545C32.385 2.95882 32.3764 2.9662 32.3706 2.97562C29.9884 6.53306 29.3359 10.003 29.656 13.43C29.6569 13.4384 29.6595 13.4466 29.6636 13.4539C29.6677 13.4613 29.6733 13.4678 29.6799 13.473C31.067 14.5 32.6185 15.284 34.2682 15.7914C34.2798 15.7949 34.2922 15.7947 34.3037 15.791C34.3153 15.7872 34.3254 15.78 34.3327 15.7703C34.687 15.2882 35.0009 14.7777 35.2713 14.244C35.275 14.2366 35.2772 14.2286 35.2775 14.2204C35.2779 14.2122 35.2766 14.204 35.2736 14.1964C35.2706 14.1887 35.266 14.1818 35.2601 14.1761C35.2542 14.1703 35.2472 14.1659 35.2395 14.1631C34.7444 13.9737 34.2651 13.7453 33.8061 13.4802C33.7978 13.4753 33.7908 13.4684 33.7857 13.4602C33.7807 13.4519 33.7777 13.4425 33.7772 13.4329C33.7766 13.4232 33.7784 13.4136 33.7824 13.4048C33.7865 13.396 33.7926 13.3883 33.8003 13.3825C33.8966 13.3103 33.993 13.2353 34.085 13.1595C34.0932 13.1527 34.103 13.1484 34.1135 13.147C34.124 13.1456 34.1347 13.1471 34.1444 13.1515C37.1515 14.5239 40.4072 14.5239 43.3787 13.1515C43.3884 13.1469 43.3992 13.1451 43.4098 13.1464C43.4205 13.1477 43.4305 13.152 43.4389 13.1587C43.5309 13.2346 43.6272 13.3103 43.7242 13.3825C43.732 13.3883 43.7382 13.3959 43.7423 13.4046C43.7464 13.4134 43.7483 13.423 43.7478 13.4327C43.7473 13.4423 43.7444 13.4517 43.7394 13.46C43.7344 13.4683 43.7275 13.4752 43.7192 13.4802C43.2612 13.7475 42.7815 13.9757 42.2851 14.1624C42.2774 14.1653 42.2704 14.1698 42.2646 14.1757C42.2587 14.1815 42.2542 14.1885 42.2512 14.1962C42.2483 14.2039 42.247 14.2121 42.2474 14.2204C42.2479 14.2286 42.2501 14.2366 42.2539 14.244C42.5288 14.7747 42.8423 15.2846 43.1918 15.7694C43.1989 15.7794 43.2089 15.7868 43.2205 15.7908C43.2321 15.7947 43.2446 15.7949 43.2563 15.7913C44.9089 15.2856 46.4631 14.5016 47.8519 13.473C47.8587 13.4681 47.8643 13.4617 47.8685 13.4545C47.8726 13.4472 47.8751 13.4391 47.8759 13.4307C48.2591 9.46878 47.2342 6.02725 45.1592 2.97634ZM35.7204 11.3433C34.815 11.3433 34.069 10.5125 34.069 9.49212C34.069 8.47175 34.8006 7.64084 35.7204 7.64084C36.6474 7.64084 37.3862 8.47896 37.3718 9.49206C37.3718 10.5125 36.6402 11.3433 35.7204 11.3433ZM41.826 11.3433C40.9207 11.3433 40.1747 10.5125 40.1747 9.49212C40.1747 8.47175 40.9062 7.64084 41.826 7.64084C42.7531 7.64084 43.4919 8.47896 43.4774 9.49206C43.4774 10.5125 42.7531 11.3433 41.826 11.3433Z" fill="#A3A3A3"/>
<path d="M63.9013 14.7936H60.9988V5.44676H63.9013V14.7936ZM62.4485 4.17176C61.5204 4.17176 60.7676 3.40301 60.7676 2.47488C60.7676 2.02907 60.9447 1.60152 61.2599 1.28628C61.5752 0.971044 62.0027 0.793945 62.4485 0.793945C62.8943 0.793945 63.3219 0.971044 63.6371 1.28628C63.9524 1.60152 64.1295 2.02907 64.1295 2.47488C64.1295 3.40301 63.3763 4.17176 62.4485 4.17176ZM74.7645 14.7936H71.8682V10.2436C71.8682 9.15926 71.8463 7.76863 70.3591 7.76863C68.8501 7.76863 68.6188 8.94676 68.6188 10.1655V14.7936H65.7195V5.44676H68.5032V6.72176H68.5438C68.9313 5.98738 69.8779 5.21238 71.2901 5.21238C74.2276 5.21238 74.7676 7.14676 74.7676 9.65926V14.7936H74.7645Z" fill="#A3A3A3"/>
</svg>
