<svg width="17" height="17" viewBox="0 0 17 17" fill="none" xmlns="http://www.w3.org/2000/svg">
<g clip-path="url(#clip0_377_33)">
<path d="M2.26758 5.29395C2.26758 10.8166 6.74491 15.2939 12.2676 15.2939H13.7676C14.1654 15.2939 14.5469 15.1359 14.8282 14.8546C15.1095 14.5733 15.2676 14.1918 15.2676 13.7939V12.8793C15.2676 12.5353 15.0336 12.2353 14.6996 12.1519L11.7509 11.4146C11.4576 11.3413 11.1496 11.4513 10.9689 11.6926L10.3222 12.5546C10.1342 12.8053 9.80958 12.9159 9.51558 12.8079C8.42417 12.4067 7.43301 11.773 6.61077 10.9508C5.78852 10.1285 5.15483 9.13736 4.75358 8.04595C4.64558 7.75195 4.75625 7.42728 5.00691 7.23928L5.86891 6.59261C6.11091 6.41195 6.22025 6.10328 6.14691 5.81061L5.40958 2.86195C5.369 2.69974 5.27539 2.55575 5.14361 2.45284C5.01183 2.34993 4.84945 2.294 4.68225 2.29395H3.76758C3.36975 2.29395 2.98822 2.45198 2.70692 2.73329C2.42561 3.01459 2.26758 3.39612 2.26758 3.79395V5.29395Z" stroke="#A3A3A3" stroke-width="1.5" stroke-linecap="round" stroke-linejoin="round"/>
</g>
<defs>
<clipPath id="clip0_377_33">
<rect width="16" height="16" fill="white" transform="translate(0.767578 0.793945)"/>
</clipPath>
</defs>
</svg>
