<svg width="17" height="17" viewBox="0 0 17 17" fill="none" xmlns="http://www.w3.org/2000/svg">
<g clip-path="url(#clip0_377_38)">
<path d="M15.2676 5.29395V12.2939C15.2676 12.6918 15.1095 13.0733 14.8282 13.3546C14.5469 13.6359 14.1654 13.7939 13.7676 13.7939H3.76758C3.36975 13.7939 2.98822 13.6359 2.70692 13.3546C2.42561 13.0733 2.26758 12.6918 2.26758 12.2939V5.29395M15.2676 5.29395C15.2676 4.89612 15.1095 4.51459 14.8282 4.23329C14.5469 3.95198 14.1654 3.79395 13.7676 3.79395H3.76758C3.36975 3.79395 2.98822 3.95198 2.70692 4.23329C2.42561 4.51459 2.26758 4.89612 2.26758 5.29395M15.2676 5.29395V5.45595C15.2676 5.71204 15.2021 5.96388 15.0772 6.18748C14.9523 6.41107 14.7723 6.59897 14.5542 6.73328L9.55425 9.80995C9.31772 9.95563 9.04538 10.0328 8.76758 10.0328C8.48978 10.0328 8.21744 9.95563 7.98091 9.80995L2.98091 6.73395C2.76286 6.59964 2.58282 6.41174 2.45796 6.18814C2.33309 5.96455 2.26755 5.71271 2.26758 5.45661V5.29395" stroke="#A3A3A3" stroke-width="1.5" stroke-linecap="round" stroke-linejoin="round"/>
</g>
<defs>
<clipPath id="clip0_377_38">
<rect width="16" height="16" fill="white" transform="translate(0.767578 0.793945)"/>
</clipPath>
</defs>
</svg>
